<svg preserveAspectRatio="none" width="100%" height="100%" overflow="visible" style="display: block;" viewBox="0 0 257.71 559.918" fill="none" xmlns="http://www.w3.org/2000/svg">
<path id="Mask" d="M44.1776 559.887C37.0259 559.675 30.8336 558.71 25.9644 557.051C12.8317 552.575 3.83563 541.89 1.25716 527.705C0.946765 525.997 0.851457 525.378 0.616751 523.548C0.487703 522.542 0.204596 519.197 0.089066 517.314C-0.0360688 515.274 -0.0270456 405.118 0.101656 363.612C0.144336 349.849 0.221148 294.01 0.27235 239.526C0.389192 115.195 0.509641 50.264 0.632324 45.4728C0.785242 39.5007 1.14668 35.6959 1.94022 31.7046C2.65929 28.0879 3.49004 25.4796 4.97403 22.1795C6.79745 18.1244 8.81819 15.203 12.0519 11.9468C16.4994 7.46836 20.6083 4.90482 26.686 2.81671C29.8829 1.71834 34.6791 0.779806 38.8023 0.427075C38.9959 0.410509 42.7326 0.120323 43.0173 0.117444C56.9333 -0.0232974 210.456 -0.048388 213.725 0.101857C215.297 0.174084 217.128 0.281262 217.795 0.34003C220.201 0.552061 221.263 0.655569 221.518 0.702687C221.661 0.729075 222.207 0.805968 222.731 0.873561C225.714 1.25847 230.693 2.54062 232.862 3.48268C233.148 3.60677 233.81 3.87602 234.334 4.08101C234.858 4.28599 236.027 4.84871 236.932 5.33149C243.655 8.91827 248.837 14.2548 252.222 21.0758C255.255 27.1862 256.569 33.2218 257.008 43.0482C257.208 47.5362 257.324 97.1712 257.456 234.071C257.506 286.602 257.584 343.804 257.63 361.188C257.749 406.802 257.71 502.033 257.673 515.417C257.67 516.426 257.51 519.093 257.495 519.379C257.356 522.127 256.848 525.991 256.24 528.83C255.043 534.426 252.978 539.323 250.058 543.486C248.378 545.884 247.245 547.132 243.87 550.305C242.565 551.532 238.694 554.018 236.326 555.15C230.956 557.717 227.108 558.693 218.747 559.612C216.487 559.86 207.711 559.89 131.03 559.912C84.1659 559.925 45.0825 559.918 44.1776 559.887ZM158.894 31.8908C160.782 31.5313 161.799 31.1541 163.3 30.2579C166.033 28.6249 168.094 25.6556 168.613 22.6001C168.839 21.274 168.731 19.1211 168.372 17.7366C167.224 13.3248 164.031 10.3912 159.203 9.31417C157.976 9.04045 155.617 9.01744 128.778 9.01744C101.606 9.01744 99.6004 9.03757 98.4303 9.32197C93.8757 10.429 90.7472 13.1725 89.4957 17.1571C88.208 21.257 89.3772 25.9236 92.394 28.7254C94.6679 30.8373 97.2894 31.9049 100.722 32.1171C101.675 32.176 114.806 32.2152 129.904 32.2042C154.931 32.186 157.49 32.1584 158.894 31.8908Z" fill="var(--fill-0, black)"/>
</svg>
