<svg preserveAspectRatio="none" width="100%" height="100%" overflow="visible" style="display: block;" viewBox="0 0 503.499 751.633" fill="none" xmlns="http://www.w3.org/2000/svg">
<path id="Mask" d="M262.776 751.464C256.306 750.957 250.172 750.118 150.486 736.103C45.7458 721.377 43.3064 721.023 36.6332 719.567C20.5561 716.061 10.1 708.781 4.461 697.167C-0.182378 687.603 -1.14432 677.467 1.31145 663.979C2.95225 654.968 0.579 663.399 37.5994 535.056C89.0479 356.693 134.427 199.357 154.29 130.47C174.954 58.8048 176.362 53.998 178.603 47.4564C183.154 34.1691 188.562 25.1392 196.739 17.1748C206.009 8.14525 216.749 2.79107 229.868 0.658828C233.763 0.025862 246.074 -0.210784 252.944 0.215274C260.695 0.696054 292.654 2.98622 413.113 11.6932C457.969 14.9355 459.309 15.0492 466.42 16.2162C482.717 18.8908 493.598 25.728 499.28 36.8634C502.336 42.853 503.49 48.0677 503.498 55.9259C503.506 62.7962 502.531 69.3334 499.988 79.48C499.278 82.3158 468.698 195.542 432.814 328.2C429.172 341.664 418.807 379.994 409.782 413.376C400.757 446.758 386.481 499.559 378.057 530.71C369.634 561.862 356.664 609.839 349.234 637.325C341.804 664.812 334.892 690.169 333.875 693.675C330.559 705.093 327.953 712.032 324.59 718.389C314.95 736.617 298.772 748.337 279.535 751.03C275.471 751.599 267.224 751.812 262.776 751.464ZM382.578 50.1383C388.042 48.3922 392.686 44.1395 394.775 38.9702C395.765 36.5198 396.016 32.2806 395.304 30.0519C394.319 26.9704 391.806 24.1721 388.951 22.9794C388.375 22.7389 387.076 22.35 386.065 22.1154C383.857 21.6034 318.227 16.712 313.596 16.7143C310.071 16.716 307.011 17.3522 304.565 18.5913C296.473 22.692 292.252 32.0946 295.442 38.9124C297.042 42.3305 300.019 44.4777 304.353 45.3382C305.612 45.5882 321.635 46.9457 339.96 48.3548C375.955 51.1228 379.088 51.2539 382.578 50.1383Z" fill="var(--fill-0, black)"/>
</svg>
