<svg preserveAspectRatio="none" width="100%" height="100%" overflow="visible" style="display: block;" viewBox="0 0 229.999 499.712" fill="none" xmlns="http://www.w3.org/2000/svg">
<path id="Mask" d="M39.4273 499.684C33.0446 499.494 27.5181 498.634 23.1726 497.153C11.4519 493.158 3.4232 483.622 1.12198 470.962C0.844963 469.438 0.759902 468.886 0.550434 467.253C0.435262 466.355 0.182596 463.369 0.079489 461.688C-0.0321904 459.868 -0.0241375 361.557 0.0907253 324.514C0.128816 312.23 0.197369 262.396 0.243065 213.77C0.347344 102.809 0.454841 44.8593 0.564332 40.5832C0.700807 35.2533 1.02338 31.8576 1.7316 28.2955C2.37334 25.0677 3.11477 22.7399 4.43919 19.7946C6.06654 16.1756 7.87 13.5682 10.756 10.6622C14.7252 6.66531 18.3924 4.37742 23.8165 2.51384C26.6697 1.53357 30.9502 0.695956 34.63 0.381153C34.8028 0.366368 38.1377 0.107385 38.3918 0.104816C50.8114 -0.0207923 187.826 -0.043185 190.744 0.0909042C192.147 0.155365 193.781 0.251018 194.376 0.303467C196.523 0.4927 197.472 0.585077 197.699 0.627129C197.827 0.65068 198.314 0.719305 198.781 0.77963C201.444 1.12315 205.887 2.26743 207.823 3.1082C208.078 3.21895 208.669 3.45924 209.137 3.64219C209.604 3.82513 210.648 4.32734 211.455 4.75821C217.455 7.95932 222.081 12.722 225.102 18.8096C227.808 24.2629 228.981 29.6496 229.373 38.4193C229.551 42.4248 229.655 86.7227 229.772 208.902C229.817 255.784 229.887 306.836 229.928 322.35C230.034 363.06 229.999 448.051 229.966 459.996C229.964 460.896 229.821 463.276 229.808 463.532C229.683 465.984 229.23 469.432 228.688 471.967C227.619 476.961 225.776 481.331 223.17 485.047C221.67 487.187 220.659 488.301 217.647 491.133C216.483 492.227 213.028 494.446 210.914 495.456C206.122 497.747 202.688 498.619 195.226 499.439C193.209 499.66 185.377 499.687 116.94 499.706C75.1158 499.718 40.2349 499.712 39.4273 499.684ZM141.809 28.4617C143.493 28.1408 144.401 27.8042 145.741 27.0044C148.18 25.547 150.019 22.8969 150.483 20.17C150.684 18.9864 150.588 17.0651 150.267 15.8294C149.243 11.892 146.393 9.27389 142.084 8.31264C140.99 8.06836 138.884 8.04783 114.931 8.04783C90.6809 8.04783 88.8906 8.06579 87.8464 8.31961C83.7816 9.30762 80.9895 11.7561 79.8725 15.3123C78.7233 18.9713 79.7667 23.1361 82.4592 25.6367C84.4886 27.5215 86.8282 28.4743 89.8919 28.6637C90.742 28.7162 102.462 28.7512 115.936 28.7414C138.271 28.7252 140.555 28.7005 141.809 28.4617Z" fill="var(--fill-0, black)"/>
</svg>
