<svg preserveAspectRatio="none" width="100%" height="100%" overflow="visible" style="display: block;" viewBox="0 0 279.899 507.568" fill="none" xmlns="http://www.w3.org/2000/svg">
<path id="Mask" d="M117.29 507.422C111.231 506.92 105.81 504.615 101.1 500.538C95.0874 495.333 91.256 488.209 88.4199 476.959C87.1814 472.046 87.2759 472.491 71.05 395.196C62.7732 355.768 54.893 318.231 53.5385 311.781C33.7474 217.536 2.28528 67.5762 2.02399 66.244C0.136172 56.6187 -0.379527 50.4035 0.26283 45.0187C1.37998 35.6536 5.75762 28.3587 13.0726 23.6725C15.8611 21.886 20.5768 20.1147 25.0354 19.1789C29.7232 18.195 28.4771 18.3818 90.2106 9.41046C159.536 -0.6642 154.551 0.00569588 160.163 0.0108606C165.773 0.0160226 169.798 0.897424 174.144 3.07208C182.677 7.34265 188.805 15.3206 192.343 26.7665C193.729 31.25 194.748 35.7587 200.467 62.6927C211.879 116.439 255.715 322.787 268.541 383.138C278.518 430.08 278.732 431.129 279.425 436.49C281.155 449.89 278.136 460.585 270.562 467.883C265.872 472.402 260.907 474.676 249.525 477.519C242.187 479.352 136.781 504.877 133.408 505.638C128.963 506.641 125.526 507.21 122.586 507.431C120.131 507.615 119.61 507.614 117.29 507.422ZM97.3959 37.2584C108.57 35.5699 118.159 34.0687 118.704 33.9224C121.764 33.1013 124.022 30.8399 124.801 27.8163C125.143 26.4906 125.141 23.8833 124.797 22.4824C123.997 19.229 121.482 16.14 118.704 15.0008C115.923 13.8604 116.338 13.8233 92.6057 17.3321C81.4314 18.9843 71.8429 20.4556 71.2978 20.6018C69.7809 21.0086 68.4275 21.7846 67.3126 22.8867C65.4519 24.7261 64.6609 26.9929 64.819 30.0324C65.003 33.5713 66.6397 36.6734 69.3392 38.5997C71.2797 39.9844 73.0915 40.5043 75.5924 40.394C76.41 40.358 86.2216 38.947 97.3959 37.2584Z" fill="var(--fill-0, black)"/>
</svg>
