<svg preserveAspectRatio="none" width="100%" height="100%" overflow="visible" style="display: block;" viewBox="0 0 287.065 428.536" fill="none" xmlns="http://www.w3.org/2000/svg">
<path id="Mask" d="M149.819 428.44C146.13 428.15 142.633 427.672 85.7982 419.682C26.0815 411.286 24.6907 411.084 20.886 410.254C11.7199 408.255 5.75841 404.104 2.5434 397.483C-0.103981 392.03 -0.652425 386.251 0.74771 378.561C1.6832 373.423 0.330111 378.231 21.4369 305.057C50.7698 203.365 76.6421 113.661 87.967 74.386C99.7485 33.5269 100.551 30.7864 101.829 27.0568C104.423 19.4812 107.507 14.3329 112.169 9.79202C117.454 4.64393 123.577 1.5913 131.057 0.375624C133.277 0.0147449 140.297 -0.120176 144.213 0.122736C148.633 0.396848 166.853 1.70256 235.532 6.66677C261.106 8.51535 261.871 8.58018 265.925 9.24553C275.216 10.7704 281.42 14.6686 284.659 21.0173C286.402 24.4322 287.06 27.4053 287.065 31.8856C287.069 35.8027 286.513 39.5297 285.063 45.3147C284.658 46.9315 267.223 111.486 246.764 187.12C244.688 194.797 238.779 216.65 233.633 235.682C228.487 254.715 220.348 284.819 215.546 302.579C210.743 320.34 203.348 347.693 199.112 363.365C194.876 379.036 190.936 393.493 190.355 395.492C188.465 402.002 186.979 405.958 185.062 409.582C179.566 419.975 170.342 426.657 159.374 428.192C157.057 428.517 152.355 428.638 149.819 428.44ZM218.123 28.5858C221.238 27.5903 223.886 25.1657 225.077 22.2185C225.641 20.8214 225.785 18.4044 225.379 17.1338C224.817 15.3769 223.384 13.7815 221.757 13.1015C221.428 12.9643 220.688 12.7427 220.111 12.6089C218.852 12.317 181.434 9.52817 178.793 9.52948C176.784 9.53047 175.039 9.89317 173.645 10.5997C169.031 12.9376 166.624 18.2984 168.443 22.1855C169.355 24.1343 171.053 25.3585 173.524 25.8491C174.242 25.9917 183.377 26.7656 193.825 27.569C214.347 29.1471 216.133 29.2219 218.123 28.5858Z" fill="var(--fill-0, black)"/>
</svg>
