<svg preserveAspectRatio="none" width="100%" height="100%" overflow="visible" style="display: block;" viewBox="0 0 183.46 189.179" fill="none" xmlns="http://www.w3.org/2000/svg">
<path id="Rectangle 429" d="M83.6414 4.13544C86.3035 1.86403 87.6345 0.728332 89.1272 0.291876C90.4429 -0.0928537 91.8407 -0.0973284 93.1589 0.278969C94.6543 0.70586 95.9925 1.83302 98.6691 4.08733L179.326 72.021C180.846 73.3012 181.606 73.9413 182.152 74.7236C182.636 75.4167 182.996 76.189 183.214 77.0056C183.46 77.9273 183.46 78.921 183.46 80.9083V177.559C183.46 181.626 183.46 183.66 182.669 185.213C181.973 186.58 180.862 187.691 179.495 188.387C177.942 189.179 175.908 189.179 171.841 189.179H11.6197C7.55243 189.179 5.51879 189.179 3.96529 188.387C2.5988 187.691 1.48781 186.58 0.791545 185.213C0 183.66 0 181.626 0 177.559V80.8632C0 78.8918 0 77.9062 0.242827 76.9909C0.457998 76.1798 0.812101 75.4122 1.28942 74.7221C1.82808 73.9432 2.5779 73.3034 4.07752 72.0239L83.6414 4.13544Z" fill="url(#paint0_linear_0_19)"/>
<defs>
<linearGradient id="paint0_linear_0_19" x1="91.7302" y1="-2.25837" x2="91.7302" y2="257.581" gradientUnits="userSpaceOnUse">
<stop stop-color="white" stop-opacity="0.7"/>
<stop offset="1" stop-color="white" stop-opacity="0"/>
</linearGradient>
</defs>
</svg>
