<svg preserveAspectRatio="none" width="100%" height="100%" overflow="visible" style="display: block;" viewBox="0 0 136.067 139.724" fill="none" xmlns="http://www.w3.org/2000/svg">
<path id="Subtract" d="M65.584 0.291768C66.8997 -0.0929613 68.298 -0.0972246 69.6162 0.279073C71.1115 0.705973 72.4498 1.83269 75.126 4.08669L131.933 51.9324C133.452 53.2124 134.213 53.8525 134.759 54.6345C135.243 55.3275 135.602 56.1002 135.82 56.9168C136.067 57.8385 136.067 58.8327 136.067 60.8201V128.104C136.067 132.171 136.067 134.205 135.275 135.759C134.579 137.125 133.468 138.236 132.102 138.932C130.548 139.724 128.514 139.724 124.447 139.724H57.4307V127.172C57.4307 125.184 57.431 124.19 57.1846 123.268C56.9662 122.452 56.607 121.679 56.123 120.986C55.5769 120.204 54.8167 119.564 53.2969 118.284L0 73.3943V60.7742C1.32286e-09 58.8031 0.00035538 57.8173 0.243164 56.9021C0.458339 56.0911 0.812753 55.3236 1.29004 54.6336C1.8287 53.8548 2.57853 53.2149 4.07812 51.9353L60.0986 4.13552C62.7604 1.86434 64.0915 0.728324 65.584 0.291768Z" fill="url(#paint0_linear_0_21)"/>
<defs>
<linearGradient id="paint0_linear_0_21" x1="68.0337" y1="-2.2592" x2="68.0337" y2="190.455" gradientUnits="userSpaceOnUse">
<stop stop-color="white" stop-opacity="0.3"/>
<stop offset="1" stop-color="white" stop-opacity="0"/>
</linearGradient>
</defs>
</svg>
