<svg preserveAspectRatio="none" width="100%" height="100%" overflow="visible" style="display: block;" viewBox="0 0 133.773 139.695" fill="none" xmlns="http://www.w3.org/2000/svg">
<path id="Subtract" d="M64.4219 0.298652C65.7524 -0.0952908 67.168 -0.0994875 68.501 0.285957C70.0136 0.723363 71.3639 1.8798 74.0635 4.19318L129.715 51.8836C131.208 53.1628 131.954 53.8022 132.49 54.5799C132.965 55.269 133.318 56.0354 133.532 56.8446C133.774 57.7576 133.773 58.7411 133.773 60.7069V72.4608L81.375 117.95C79.9025 119.228 79.1664 119.868 78.6377 120.642C78.1692 121.328 77.8213 122.09 77.6104 122.893C77.3724 123.8 77.3721 124.775 77.3721 126.724V139.695H11.6201C7.55296 139.695 5.5193 139.695 3.96582 138.903C2.59933 138.207 1.48825 137.096 0.791992 135.729C0.00045828 134.176 0 132.142 0 128.075V60.661C9.50987e-10 58.7115 0.000318221 57.7365 0.238281 56.8299C0.449249 56.0264 0.797167 55.265 1.26562 54.5789C1.79429 53.8047 2.5304 53.1649 4.00293 51.8865L58.8848 4.24201C61.5695 1.91131 62.9121 0.74574 64.4219 0.298652Z" fill="url(#paint0_linear_0_11)"/>
<defs>
<linearGradient id="paint0_linear_0_11" x1="66.8867" y1="-2.29806" x2="66.8867" y2="190.431" gradientUnits="userSpaceOnUse">
<stop stop-color="white" stop-opacity="0.3"/>
<stop offset="1" stop-color="white" stop-opacity="0"/>
</linearGradient>
</defs>
</svg>
