<svg preserveAspectRatio="none" width="100%" height="100%" overflow="visible" style="display: block;" viewBox="0 0 795.261 229.577" fill="none" xmlns="http://www.w3.org/2000/svg">
<path id="Vector 575" d="M480.688 7.17041C482.869 0.740434 490.701 -1.67549 496.126 2.40772L517.997 18.8696C519.008 19.6308 519.865 20.5779 520.522 21.6597L549.041 68.603C551.541 72.7179 556.468 74.6733 561.109 73.3921L588.012 65.9653C589.92 65.4386 591.942 65.4923 593.82 66.1187L619.161 74.5718C620.995 75.1833 622.96 75.2897 624.849 74.8804L654.162 68.5288C655.937 68.1444 657.783 68.2516 659.501 68.8394L691.659 79.8413L724.35 96.1021C724.929 96.3901 725.479 96.7338 725.991 97.1284L754.822 119.321C757.438 121.334 760.832 122.037 764.031 121.228L782.446 116.57C788.746 114.977 794.862 119.738 794.862 126.236V229.178H0.398438V105.687C0.398438 97.35 10.0222 92.6945 16.5586 97.8696L33.5029 111.285C35.1666 112.602 37.1821 113.398 39.2969 113.574L65.6064 115.754C68.3959 115.986 71.1658 115.122 73.3291 113.346L104.346 87.8784C104.761 87.5374 105.203 87.2302 105.668 86.9605L133.902 70.5776C136.711 68.9476 140.138 68.7872 143.087 70.1489L168.778 82.0151C172.375 83.6764 176.594 83.228 179.762 80.8481L199.938 65.6899C203.908 62.7069 209.469 63.101 212.979 66.6138L238.25 91.9019C241.156 94.8095 245.463 95.8094 249.353 94.479L275.195 85.6372C277.047 85.0039 279.043 84.9301 280.937 85.4233L307.71 92.398C310.27 93.065 312.987 92.7661 315.341 91.5581L340.204 78.7993C343.967 76.8685 348.539 77.5219 351.61 80.4292L375.357 102.906C378.925 106.282 384.324 106.817 388.484 104.206L410.876 90.1519C413.551 88.4727 416.865 88.1604 419.807 89.3101L438.456 96.5981C444.174 98.8326 450.601 95.8423 452.573 90.0288L480.688 7.17041Z" fill="url(#paint0_linear_0_10)" stroke="url(#paint1_linear_0_10)" stroke-width="0.797654"/>
<defs>
<linearGradient id="paint0_linear_0_10" x1="397.63" y1="-6.52881" x2="397.63" y2="229.577" gradientUnits="userSpaceOnUse">
<stop stop-color="white"/>
<stop offset="1" stop-color="white" stop-opacity="0"/>
</linearGradient>
<linearGradient id="paint1_linear_0_10" x1="397.63" y1="-6.52881" x2="397.63" y2="229.577" gradientUnits="userSpaceOnUse">
<stop stop-color="white"/>
<stop offset="1" stop-color="white" stop-opacity="0"/>
</linearGradient>
</defs>
</svg>
