<svg width="32" height="32" viewBox="0 0 32 32" fill="none" xmlns="http://www.w3.org/2000/svg">
<rect width="32" height="32" rx="16" fill="white"/>
<path d="M14.4188 17.5C13.5393 17.5 12.7644 17.29 12.0942 16.87C11.438 16.45 10.9215 15.862 10.5445 15.106C10.1815 14.35 10 13.482 10 12.502C10 11.438 10.2094 10.493 10.6283 9.667C11.0471 8.841 11.6126 8.19 12.3246 7.714C13.0506 7.238 13.8743 7 14.7958 7C15.2845 7 15.7661 7.098 16.2408 7.294C16.7155 7.476 17.1134 7.728 17.4346 8.05V7.64161C17.4346 7.37127 17.6077 7.12856 17.8743 7.084C18.0419 7.056 18.2164 7.042 18.3979 7.042C18.4783 7.042 18.5576 7.04482 18.6356 7.05047C19.0646 7.08152 19.3403 7.47901 19.3403 7.90913V16.051C19.6335 15.841 19.9337 15.638 20.2408 15.442C20.3525 15.369 20.4583 15.301 20.5582 15.2381C20.863 15.0462 21.2673 15.0372 21.5051 15.3076C21.5813 15.3944 21.6486 15.4882 21.7068 15.589C21.7663 15.692 21.8174 15.8014 21.8601 15.917C21.9906 16.2701 21.8029 16.6447 21.49 16.8539C21.3944 16.9179 21.2921 16.9862 21.1832 17.059C20.8621 17.269 20.534 17.486 20.199 17.71C19.8639 17.934 19.5777 18.123 19.3403 18.277V23.086C19.3403 26.362 18.1466 28 15.7592 28C14.6562 28 13.7906 27.671 13.1623 27.013C12.548 26.355 12.2408 25.452 12.2408 24.304C12.2408 21.742 13.986 19.341 17.4764 17.101V16.219C17.0855 16.625 16.6318 16.94 16.1152 17.164C15.5986 17.388 15.0332 17.5 14.4188 17.5ZM11.9476 12.502C11.9476 13.496 12.171 14.28 12.6178 14.854C13.0785 15.414 13.7068 15.694 14.5026 15.694C15.3822 15.694 16.0873 15.393 16.6178 14.791C17.1623 14.189 17.4346 13.398 17.4346 12.418V10.066C17.1553 9.688 16.7993 9.387 16.3665 9.163C15.9337 8.925 15.4869 8.806 15.0262 8.806C14.4258 8.806 13.8953 8.967 13.4346 9.289C12.9738 9.611 12.6108 10.052 12.3455 10.612C12.0803 11.158 11.9476 11.788 11.9476 12.502ZM14.1257 24.262C14.1257 24.864 14.2653 25.333 14.5445 25.669C14.8237 26.019 15.2077 26.194 15.6963 26.194C16.8831 26.194 17.4764 25.158 17.4764 23.086V19.327C15.2426 20.909 14.1257 22.554 14.1257 24.262Z" fill="#15171C"/>
</svg>
