<svg width="15" height="12" viewBox="0 0 15 12" fill="none" xmlns="http://www.w3.org/2000/svg">
<path d="M5.75781 11.5469C5.53385 11.5469 5.32812 11.4583 5.14062 11.2812L0.28125 6.42188C0.09375 6.24479 0 6.02865 0 5.77344C0 5.52344 0.09375 5.3099 0.28125 5.13281L5.125 0.28125C5.22396 0.1875 5.32552 0.117188 5.42969 0.0703125C5.53906 0.0234375 5.64844 0 5.75781 0C6.00781 0 6.21354 0.0807292 6.375 0.242188C6.53646 0.398438 6.61719 0.596354 6.61719 0.835938C6.61719 0.960938 6.59375 1.07812 6.54688 1.1875C6.5 1.29167 6.4375 1.38281 6.35938 1.46094L4.70312 3.13281L1.82031 5.77344L4.70312 8.42188L6.35938 10.0938C6.4375 10.1719 6.5 10.2656 6.54688 10.375C6.59375 10.4792 6.61719 10.5938 6.61719 10.7188C6.61719 10.9583 6.53646 11.1562 6.375 11.3125C6.21354 11.4688 6.00781 11.5469 5.75781 11.5469ZM4.35156 6.64844L1.71875 6.49219C1.5 6.49219 1.32031 6.42708 1.17969 6.29688C1.04427 6.16667 0.976562 5.99219 0.976562 5.77344C0.976562 5.5599 1.04427 5.38802 1.17969 5.25781C1.32031 5.1224 1.4974 5.05469 1.71094 5.05469L4.35156 4.90625H13.1875C13.4479 4.90625 13.6589 4.98698 13.8203 5.14844C13.987 5.3099 14.0703 5.51823 14.0703 5.77344C14.0703 6.03385 13.987 6.24479 13.8203 6.40625C13.6589 6.56771 13.4479 6.64844 13.1875 6.64844H4.35156Z" fill="white"/>
</svg>
