<svg width="15" height="15" viewBox="0 0 15 15" fill="none" xmlns="http://www.w3.org/2000/svg">
<path d="M0.361328 14.3848C0.146484 14.1699 0.0325521 13.9258 0.0195312 13.6523C0.00651042 13.3724 0.123698 13.1055 0.371094 12.8516L9.84375 3.36914L11.9922 1.38672C12.2135 1.17188 12.4512 1.07096 12.7051 1.08398C12.959 1.09049 13.1803 1.18815 13.3691 1.37695C13.5514 1.56576 13.6458 1.78711 13.6523 2.04102C13.6654 2.28841 13.5645 2.52279 13.3496 2.74414L11.3672 4.88281L1.875 14.3652C1.64062 14.5996 1.38346 14.7135 1.10352 14.707C0.823568 14.707 0.576172 14.5996 0.361328 14.3848ZM12.627 7.32422L12.8613 1.9043L7.24609 2.10938H3.76953C3.47656 2.10938 3.22266 2.00846 3.00781 1.80664C2.79297 1.59831 2.68555 1.35091 2.68555 1.06445C2.68555 0.777995 2.78971 0.530599 2.99805 0.322266C3.20638 0.107422 3.47331 0 3.79883 0H13.6035C13.9551 0 14.2318 0.107422 14.4336 0.322266C14.6419 0.530599 14.7461 0.804036 14.7461 1.14258L14.7559 10.9375C14.7559 11.2565 14.6484 11.5234 14.4336 11.7383C14.2188 11.9531 13.9681 12.0605 13.6816 12.0605C13.3887 12.0605 13.138 11.9531 12.9297 11.7383C12.7279 11.5234 12.627 11.2663 12.627 10.9668V7.32422Z" fill="#15171C"/>
</svg>
